<svg xmlns="http://www.w3.org/2000/svg" x="0px" y="0px" width="100" height="100" viewBox="0 0 24 24" fill="rgb(100 100 100)">
<path d="M20,7c-0.724,0-1.43,0.2-2.048,0.573c-1.423-0.844-3.102-1.347-4.856-1.503c0.505-1.1,1.289-1.571,2.047-1.769	C15.479,5.287,16.401,6,17.5,6C18.881,6,20,4.881,20,3.5C20,2.119,18.881,1,17.5,1c-1.133,0-2.079,0.759-2.386,1.792	c-2.125,0.429-3.147,1.84-3.62,3.241C9.527,6.113,7.63,6.636,6.048,7.573C5.43,7.2,4.724,7,4,7c-2.206,0-4,1.794-4,4	c0,1.443,0.787,2.758,2.017,3.461C2.315,18.658,6.679,22,12,22s9.685-3.342,9.983-7.539C23.213,13.758,24,12.443,24,11	C24,8.794,22.206,7,20,7z M5.628,12.997C5.628,11.951,6.646,11,7.449,11c1.046,0,1.611,0.894,1.611,1.997	c0,1.868-0.768,1.997-1.716,1.997C6.094,14.994,5.628,14.355,5.628,12.997z M12,18.891c-2.018,0-3.654-1.711-3.654-2.514	c0-0.444,1.636-0.393,3.654-0.393s3.654-0.069,3.654,0.393C15.654,17.18,14.018,18.891,12,18.891z M16.656,14.994	c-0.948,0-1.716-0.129-1.716-1.997c0-1.103,0.565-1.997,1.611-1.997c0.803,0,1.821,0.951,1.821,1.997	C18.372,14.355,17.906,14.994,16.656,14.994z"></path>
</svg>
