<?xml version="1.0" encoding="UTF-8"?>
<svg xmlns="http://www.w3.org/2000/svg" id="Layer_1" data-name="Layer 1" viewBox="0 0 24 24" fill="#EE7A08" stroke="#EE7A08">
  <path d="M19.134,11.569c0-.376-.211-.721-.547-.892-.86-.438-1.781-.841-2.813-1.233-1.706-.654-2.949-1.916-3.595-3.645-.387-1.049-.785-1.983-1.216-2.855-.169-.34-.517-.556-.896-.556s-.729,.216-.896,.557c-.43,.869-.827,1.803-1.214,2.85-.646,1.732-1.89,2.994-3.593,3.647-1.038,.395-1.96,.798-2.817,1.235-.335,.17-.546,.515-.546,.891s.211,.721,.547,.892c.862,.438,1.783,.842,2.813,1.232,1.706,.654,2.949,1.916,3.595,3.646,.389,1.053,.786,1.985,1.215,2.854,.169,.341,.516,.557,.896,.557s.728-.216,.896-.557c.431-.869,.828-1.803,1.214-2.851,.647-1.732,1.892-2.994,3.593-3.647,1.034-.392,1.955-.795,2.817-1.233,.336-.171,.547-.515,.547-.892Z"/>
  <path d="M17.096,6.542c.255,.13,.506,.237,.753,.331,.207,.08,.352,.228,.43,.435,.092,.253,.197,.505,.324,.763,.167,.342,.515,.56,.896,.56h.002c.38,0,.728-.216,.896-.557,.127-.257,.231-.51,.324-.761,.08-.212,.225-.36,.428-.438,.251-.095,.501-.202,.756-.332,.336-.17,.547-.516,.547-.892s-.212-.721-.548-.891c-.254-.128-.504-.235-.752-.33-.206-.079-.351-.227-.43-.437-.094-.253-.198-.506-.326-.764-.168-.34-.516-.556-.896-.556h-.002c-.381,0-.728,.217-.896,.559-.126,.257-.231,.51-.322,.758-.08,.212-.225,.36-.428,.438-.252,.096-.502,.202-.757,.332-.336,.17-.547,.515-.547,.891s.211,.721,.547,.891Z"/>
  <path d="M22.453,17.185c-.317-.161-.63-.295-.938-.411-.339-.13-.586-.382-.713-.724-.117-.316-.248-.632-.406-.952-.169-.341-.517-.557-.896-.557h0c-.381,0-.729,.217-.896,.559-.157,.32-.288,.635-.402,.945-.13,.347-.377,.599-.711,.727-.312,.118-.626,.252-.942,.414-.335,.171-.546,.515-.546,.891s.211,.72,.546,.891c.316,.161,.628,.294,.939,.413,.337,.129,.584,.38,.712,.723,.116,.315,.247,.631,.405,.95,.168,.341,.515,.557,.896,.558h0c.38,0,.727-.215,.896-.556,.159-.32,.29-.636,.406-.949,.128-.346,.375-.597,.712-.726,.312-.119,.623-.251,.939-.412,.336-.171,.547-.516,.547-.892s-.211-.721-.547-.892Z"/>
</svg>

