<?xml version="1.0" encoding="UTF-8"?>
<svg xmlns="http://www.w3.org/2000/svg" xmlns:xlink="http://www.w3.org/1999/xlink" width="135.646" height="136.817" viewBox="0 0 135.646 136.817">
<defs>
<clipPath id="clip-0">
<path clip-rule="nonzero" d="M 59 61 L 135.644531 61 L 135.644531 136.816406 L 59 136.816406 Z M 59 61 "/>
</clipPath>
</defs>
<path fill-rule="nonzero" fill="rgb(50%, 50%, 50%)" fill-opacity="0.5" d="M 4.0625 118.621094 C 3 111.53125 3 104.445312 4.0625 97.359375 C 7.605469 90.273438 7.605469 101.613281 14.691406 101.613281 C 18.625 101.613281 21.777344 96.566406 21.777344 90.273438 C 21.777344 83.980469 18.625 78.933594 14.691406 78.933594 C 7.605469 78.933594 7.605469 90.273438 4.0625 83.1875 C 3 76.097656 3 69.011719 4.0625 61.925781 C 11.148438 62.988281 18.234375 62.988281 25.320312 61.925781 C 32.410156 58.382812 21.070312 58.382812 21.070312 51.296875 C 21.070312 47.363281 26.117188 44.210938 32.410156 44.210938 C 38.699219 44.210938 43.746094 47.363281 43.746094 51.296875 C 43.746094 58.382812 32.410156 58.382812 39.496094 61.925781 C 46.582031 62.988281 53.667969 62.988281 60.753906 61.925781 C 59.691406 69.011719 59.691406 76.097656 60.753906 83.1875 C 64.296875 90.273438 64.296875 78.933594 71.386719 78.933594 C 75.316406 78.933594 78.472656 83.980469 78.472656 90.273438 C 78.472656 96.566406 75.316406 101.613281 71.386719 101.613281 C 64.296875 101.613281 64.296875 90.273438 60.753906 97.359375 C 59.691406 104.445312 59.691406 111.53125 60.753906 118.621094 C 53.667969 119.683594 46.582031 119.683594 39.496094 118.621094 C 32.410156 115.078125 43.746094 115.078125 43.746094 107.988281 C 43.746094 104.058594 38.699219 100.902344 32.410156 100.902344 C 26.117188 100.902344 21.070312 104.058594 21.070312 107.988281 C 21.070312 115.078125 32.410156 115.078125 25.320312 118.621094 C 18.234375 119.683594 11.148438 119.683594 4.0625 118.621094 Z M 4.0625 118.621094 "/>
<path fill-rule="nonzero" fill="rgb(18.429565%, 73.722839%, 16.862488%)" fill-opacity="1" stroke-width="0.3985" stroke-linecap="butt" stroke-linejoin="round" stroke="rgb(100%, 100%, 100%)" stroke-opacity="1" stroke-miterlimit="10" d="M 0.00096875 -0.0015625 C -1.061531 7.088281 -1.061531 14.174219 0.00096875 21.260156 C 3.543938 28.346094 3.543938 17.010156 10.629875 17.010156 C 14.563469 17.010156 17.715812 22.053125 17.715812 28.346094 C 17.715812 34.639063 14.563469 39.685938 10.629875 39.685938 C 3.543938 39.685938 3.543938 28.346094 0.00096875 35.432031 C -1.061531 42.521875 -1.061531 49.607813 0.00096875 56.69375 C 7.086906 55.63125 14.172844 55.63125 21.258781 56.69375 C 28.348625 60.236719 17.008781 60.236719 17.008781 67.322656 C 17.008781 71.25625 22.055656 74.408594 28.348625 74.408594 C 34.637687 74.408594 39.684562 71.25625 39.684562 67.322656 C 39.684562 60.236719 28.348625 60.236719 35.434562 56.69375 C 42.5205 55.63125 49.606437 55.63125 56.692375 56.69375 C 55.629875 49.607813 55.629875 42.521875 56.692375 35.432031 C 60.235344 28.346094 60.235344 39.685938 67.325187 39.685938 C 71.254875 39.685938 74.411125 34.639063 74.411125 28.346094 C 74.411125 22.053125 71.254875 17.010156 67.325187 17.010156 C 60.235344 17.010156 60.235344 28.346094 56.692375 21.260156 C 55.629875 14.174219 55.629875 7.088281 56.692375 -0.0015625 C 49.606437 -1.064062 42.5205 -1.064062 35.434562 -0.0015625 C 28.348625 3.541406 39.684562 3.541406 39.684562 10.63125 C 39.684562 14.560938 34.637687 17.717188 28.348625 17.717188 C 22.055656 17.717188 17.008781 14.560938 17.008781 10.63125 C 17.008781 3.541406 28.348625 3.541406 21.258781 -0.0015625 C 14.172844 -1.064062 7.086906 -1.064062 0.00096875 -0.0015625 Z M 0.00096875 -0.0015625 " transform="matrix(1, 0, 0, -1, 1.917, 116.475)"/>
<g clip-path="url(#clip-0)">
<path fill-rule="nonzero" fill="rgb(50%, 50%, 50%)" fill-opacity="0.5" d="M 60.753906 118.621094 C 59.691406 111.53125 59.691406 104.445312 60.753906 97.359375 C 64.296875 90.273438 64.296875 101.613281 71.386719 101.613281 C 75.316406 101.613281 78.472656 96.566406 78.472656 90.273438 C 78.472656 83.980469 75.316406 78.933594 71.386719 78.933594 C 64.296875 78.933594 64.296875 90.273438 60.753906 83.1875 C 59.691406 76.097656 59.691406 69.011719 60.753906 61.925781 C 67.84375 60.863281 74.929688 60.863281 82.015625 61.925781 C 89.101562 65.46875 77.761719 65.46875 77.761719 72.554688 C 77.761719 76.488281 82.808594 79.644531 89.101562 79.644531 C 95.394531 79.644531 100.441406 76.488281 100.441406 72.554688 C 100.441406 65.46875 89.101562 65.46875 96.1875 61.925781 C 103.277344 60.863281 110.363281 60.863281 117.449219 61.925781 C 116.386719 69.011719 116.386719 76.097656 117.449219 83.1875 C 120.992188 90.273438 120.992188 78.933594 128.078125 78.933594 C 132.011719 78.933594 135.164062 83.980469 135.164062 90.273438 C 135.164062 96.566406 132.011719 101.613281 128.078125 101.613281 C 120.992188 101.613281 120.992188 90.273438 117.449219 97.359375 C 116.386719 104.445312 116.386719 111.53125 117.449219 118.621094 C 110.363281 117.554688 103.277344 117.554688 96.1875 118.621094 C 89.101562 122.164062 100.441406 122.164062 100.441406 129.25 C 100.441406 133.183594 95.394531 136.335938 89.101562 136.335938 C 82.808594 136.335938 77.761719 133.183594 77.761719 129.25 C 77.761719 122.164062 89.101562 122.164062 82.015625 118.621094 C 74.929688 117.554688 67.84375 117.554688 60.753906 118.621094 Z M 60.753906 118.621094 "/>
</g>
<path fill-rule="nonzero" fill="rgb(85.998535%, 0%, 0%)" fill-opacity="1" stroke-width="0.3985" stroke-linecap="butt" stroke-linejoin="round" stroke="rgb(100%, 100%, 100%)" stroke-opacity="1" stroke-miterlimit="10" d="M 56.692375 -0.0015625 C 55.629875 7.088281 55.629875 14.174219 56.692375 21.260156 C 60.235344 28.346094 60.235344 17.010156 67.325187 17.010156 C 71.254875 17.010156 74.411125 22.053125 74.411125 28.346094 C 74.411125 34.639063 71.254875 39.685938 67.325187 39.685938 C 60.235344 39.685938 60.235344 28.346094 56.692375 35.432031 C 55.629875 42.521875 55.629875 49.607813 56.692375 56.69375 C 63.782219 57.75625 70.868156 57.75625 77.954094 56.69375 C 85.040031 53.150781 73.700187 53.150781 73.700187 46.064844 C 73.700187 42.13125 78.747062 38.975 85.040031 38.975 C 91.333 38.975 96.379875 42.13125 96.379875 46.064844 C 96.379875 53.150781 85.040031 53.150781 92.125969 56.69375 C 99.211906 57.75625 106.30175 57.75625 113.387687 56.69375 C 112.325187 49.607813 112.325187 42.521875 113.387687 35.432031 C 116.930656 28.346094 116.930656 39.685938 124.016594 39.685938 C 127.950187 39.685938 131.102531 34.639063 131.102531 28.346094 C 131.102531 22.053125 127.950187 17.010156 124.016594 17.010156 C 116.930656 17.010156 116.930656 28.346094 113.387687 21.260156 C 112.325187 14.174219 112.325187 7.088281 113.387687 -0.0015625 C 106.30175 1.064844 99.215812 1.064844 92.125969 -0.0015625 C 85.040031 -3.544531 96.379875 -3.544531 96.379875 -10.630469 C 96.379875 -14.564062 91.333 -17.716406 85.040031 -17.716406 C 78.747062 -17.716406 73.700187 -14.564062 73.700187 -10.630469 C 73.700187 -3.544531 85.040031 -3.544531 77.954094 -0.0015625 C 70.868156 1.064844 63.782219 1.064844 56.692375 -0.0015625 Z M 56.692375 -0.0015625 " transform="matrix(1, 0, 0, -1, 1.917, 116.475)"/>
<path fill-rule="nonzero" fill="rgb(50%, 50%, 50%)" fill-opacity="0.5" d="M 46.582031 84.605469 C 42.117188 78.996094 38.574219 72.859375 35.953125 66.191406 C 35.476562 58.28125 41.144531 68.101562 47.285156 64.558594 C 50.691406 62.59375 50.898438 56.644531 47.75 51.195312 C 44.605469 45.746094 39.351562 42.953125 35.945312 44.921875 C 29.808594 48.464844 35.476562 58.28125 28.863281 53.917969 C 24.402344 48.3125 20.859375 42.175781 18.234375 35.503906 C 24.902344 32.882812 31.042969 29.339844 36.648438 24.875 C 41.011719 18.261719 31.191406 23.933594 27.648438 17.796875 C 25.683594 14.390625 28.476562 9.136719 33.925781 5.988281 C 39.375 2.84375 45.324219 3.050781 47.289062 6.457031 C 50.832031 12.59375 41.011719 18.261719 48.921875 17.789062 C 55.589844 15.167969 61.726562 11.621094 67.332031 7.160156 C 69.957031 13.828125 73.5 19.964844 77.964844 25.570312 C 84.574219 29.9375 78.90625 20.117188 85.042969 16.574219 C 88.449219 14.605469 93.703125 17.398438 96.851562 22.847656 C 99.996094 28.296875 99.789062 34.246094 96.382812 36.210938 C 90.246094 39.753906 84.574219 29.9375 85.050781 37.84375 C 87.671875 44.515625 91.214844 50.652344 95.679688 56.257812 C 90.074219 60.722656 83.9375 64.265625 77.269531 66.886719 C 69.359375 67.363281 79.179688 61.691406 75.636719 55.554688 C 73.667969 52.148438 67.722656 51.941406 62.273438 55.085938 C 56.824219 58.234375 54.03125 63.488281 55.996094 66.894531 C 59.539062 73.03125 69.359375 67.363281 64.992188 73.972656 C 59.386719 78.4375 53.25 81.980469 46.582031 84.605469 Z M 46.582031 84.605469 "/>
<path fill-rule="nonzero" fill="rgb(0%, 0%, 100%)" fill-opacity="1" stroke-width="0.3985" stroke-linecap="butt" stroke-linejoin="round" stroke="rgb(100%, 100%, 100%)" stroke-opacity="1" stroke-miterlimit="10" d="M 42.5205 34.017969 C 38.055656 39.623438 34.512687 45.760156 31.891594 52.428125 C 31.415031 60.338281 37.083 50.517969 43.223625 54.060938 C 46.625969 56.025781 46.836906 61.975 43.688469 67.424219 C 40.543937 72.873438 35.290031 75.666406 31.883781 73.701563 C 25.747062 70.154688 31.415031 60.338281 24.80175 64.701563 C 20.340812 70.307031 16.797844 76.44375 14.172844 83.115625 C 20.840812 85.736719 26.981437 89.279688 32.586906 93.744531 C 36.950187 100.357813 27.129875 94.685938 23.586906 100.822656 C 21.622062 104.228906 24.415031 109.482813 29.86425 112.63125 C 35.313469 115.775781 41.258781 115.56875 43.227531 112.1625 C 46.7705 106.025781 36.950187 100.357813 44.860344 100.830469 C 51.528312 103.455469 57.665031 106.998438 63.2705 111.459375 C 65.8955 104.791406 69.438469 98.654688 73.903312 93.049219 C 80.512687 88.682031 74.844719 98.502344 80.981437 102.045313 C 84.387687 104.014063 89.641594 101.221094 92.790031 95.771875 C 95.934562 90.322656 95.727531 84.373438 92.321281 82.408594 C 86.184562 78.865625 80.512687 88.682031 80.98925 80.775781 C 83.610344 74.107813 87.153312 67.967188 91.618156 62.361719 C 86.012687 57.900781 79.875969 54.353906 73.208 51.732813 C 65.297844 51.25625 75.118156 56.928125 71.575187 63.064844 C 69.606437 66.471094 63.661125 66.678125 58.211906 63.533594 C 52.762687 60.385156 49.969719 55.13125 51.934562 51.725 C 55.477531 45.588281 65.297844 51.25625 60.930656 44.646875 C 55.325187 40.182031 49.188469 36.639063 42.5205 34.017969 Z M 42.5205 34.017969 " transform="matrix(1, 0, 0, -1, 1.917, 116.475)"/>
<path fill-rule="nonzero" fill="rgb(100%, 100%, 100%)" fill-opacity="1" stroke-width="0.3985" stroke-linecap="butt" stroke-linejoin="round" stroke="rgb(0%, 0%, 0%)" stroke-opacity="1" stroke-miterlimit="10" d="M 98.504875 8.502344 L 98.504875 18.424219 L 93.543937 18.424219 L 93.543937 22.678125 L 107.719719 22.678125 L 107.719719 18.424219 L 102.758781 18.424219 L 102.758781 8.502344 Z M 98.504875 8.502344 " transform="matrix(1, 0, 0, -1, 1.917, 116.475)"/>
<path fill-rule="nonzero" fill="rgb(100%, 100%, 100%)" fill-opacity="1" stroke-width="0.3985" stroke-linecap="butt" stroke-linejoin="miter" stroke="rgb(0%, 0%, 0%)" stroke-opacity="1" stroke-miterlimit="10" d="M 85.040031 8.502344 L 85.040031 22.678125 L 92.125969 22.678125 C 95.075187 22.678125 97.442375 20.310938 97.442375 17.361719 C 97.442375 14.4125 95.075187 12.049219 92.125969 12.049219 L 89.293937 12.049219 L 89.293937 8.502344 Z M 85.040031 8.502344 " transform="matrix(1, 0, 0, -1, 1.917, 116.475)"/>
<path fill-rule="nonzero" fill="rgb(100%, 100%, 100%)" fill-opacity="1" stroke-width="0.3985" stroke-linecap="butt" stroke-linejoin="miter" stroke="rgb(0%, 0%, 0%)" stroke-opacity="1" stroke-miterlimit="10" d="M 73.700187 8.502344 L 80.790031 22.678125 L 87.875969 8.502344 L 83.622062 8.502344 L 82.204094 11.338281 L 79.372062 11.338281 L 77.954094 8.502344 Z M 73.700187 8.502344 " transform="matrix(1, 0, 0, -1, 1.917, 116.475)"/>
<path fill-rule="nonzero" fill="rgb(100%, 100%, 100%)" fill-opacity="1" stroke-width="0.3985" stroke-linecap="butt" stroke-linejoin="miter" stroke="rgb(0%, 0%, 0%)" stroke-opacity="1" stroke-miterlimit="10" d="M 62.36425 8.502344 L 62.36425 22.678125 L 69.450187 22.678125 C 73.383781 22.678125 76.536125 19.521875 76.536125 15.592188 C 76.536125 11.658594 73.383781 8.502344 69.450187 8.502344 Z M 62.36425 8.502344 " transform="matrix(1, 0, 0, -1, 1.917, 116.475)"/>
<path fill-rule="nonzero" fill="rgb(100%, 100%, 100%)" fill-opacity="1" stroke-width="0.3985" stroke-linecap="butt" stroke-linejoin="miter" stroke="rgb(0%, 0%, 0%)" stroke-opacity="1" stroke-miterlimit="10" d="M 51.024406 8.502344 L 58.110344 22.678125 L 65.196281 8.502344 L 60.946281 8.502344 L 59.528312 11.338281 L 56.692375 11.338281 L 55.274406 8.502344 Z M 51.024406 8.502344 " transform="matrix(1, 0, 0, -1, 1.917, 116.475)"/>
<path fill-rule="nonzero" fill="rgb(100%, 100%, 100%)" fill-opacity="1" stroke-width="0.3985" stroke-linecap="butt" stroke-linejoin="miter" stroke="rgb(0%, 0%, 0%)" stroke-opacity="1" stroke-miterlimit="10" d="M 87.875969 -2.833594 L 87.875969 11.338281 L 94.961906 11.338281 C 96.92675 11.338281 98.504875 9.760156 98.504875 7.795313 C 98.504875 5.830469 96.92675 4.252344 94.961906 4.252344 C 96.92675 4.252344 98.504875 2.674219 98.504875 0.709375 C 98.504875 -1.255469 96.92675 -2.833594 94.961906 -2.833594 Z M 87.875969 -2.833594 " transform="matrix(1, 0, 0, -1, 1.917, 116.475)"/>
<path fill-rule="nonzero" fill="rgb(100%, 100%, 100%)" fill-opacity="1" stroke-width="0.3985" stroke-linecap="butt" stroke-linejoin="miter" stroke="rgb(0%, 0%, 0%)" stroke-opacity="1" stroke-miterlimit="10" d="M 75.118156 -2.833594 L 82.204094 11.338281 L 89.293937 -2.833594 L 85.040031 -2.833594 L 83.622062 0.00234375 L 80.790031 0.00234375 L 79.372062 -2.833594 Z M 75.118156 -2.833594 " transform="matrix(1, 0, 0, -1, 1.917, 116.475)"/>
<path fill-rule="nonzero" fill="rgb(100%, 100%, 100%)" fill-opacity="1" stroke-width="0.3985" stroke-linecap="butt" stroke-linejoin="miter" stroke="rgb(0%, 0%, 0%)" stroke-opacity="1" stroke-miterlimit="10" d="M 68.032219 -2.833594 L 68.032219 11.338281 L 72.286125 11.338281 L 72.286125 1.416406 L 79.372062 1.416406 L 79.372062 -2.833594 Z M 68.032219 -2.833594 " transform="matrix(1, 0, 0, -1, 1.917, 116.475)"/>
<path fill-rule="nonzero" fill="rgb(100%, 100%, 100%)" fill-opacity="1" stroke-width="0.3985" stroke-linecap="butt" stroke-linejoin="miter" stroke="rgb(0%, 0%, 0%)" stroke-opacity="1" stroke-miterlimit="10" d="M 104.883781 -0.0015625 C 104.883781 1.572656 103.622062 2.834375 102.047844 2.834375 C 100.473625 2.834375 99.215812 1.572656 99.215812 -0.0015625 C 99.215812 -1.571875 100.473625 -2.833594 102.047844 -2.833594 C 103.622062 -2.833594 104.883781 -1.571875 104.883781 -0.0015625 Z M 104.883781 -0.0015625 " transform="matrix(1, 0, 0, -1, 1.917, 116.475)"/>
</svg>
